<?xml version="1.0" standalone="no"?>
<!DOCTYPE svg PUBLIC "-//W3C//DTD SVG 20010904//EN"
 "http://www.w3.org/TR/2001/REC-SVG-20010904/DTD/svg10.dtd">
<svg version="1.0" xmlns="http://www.w3.org/2000/svg"
 width="1024.000000pt" height="1024.000000pt" viewBox="0 0 1024.000000 1024.000000"
 preserveAspectRatio="xMidYMid meet">
<metadata>
Created by potrace 1.14, written by Peter Selinger 2001-2017
</metadata>
<g transform="translate(0.000000,1024.000000) scale(0.100000,-0.100000)"
fill="#000000" stroke="none">
<path d="M0 5120 l0 -5120 5120 0 5120 0 0 5120 0 5120 -5120 0 -5120 0 0
-5120z m4220 2092 c389 -120 670 -461 698 -845 4 -51 5 -670 2 -1377 l-5
-1285 -32 -95 c-94 -275 -298 -479 -573 -573 l-95 -32 -1415 0 -1415 0 -95 32
c-275 94 -479 298 -573 573 l-32 95 0 1415 0 1415 32 95 c105 309 362 537 674
599 24 5 651 8 1399 7 l1355 -1 75 -23z m4615 2 c113 -34 189 -69 282 -129
249 -163 411 -434 432 -725 3 -47 4 -663 1 -1370 l-5 -1285 -33 -95 c-98 -282
-290 -474 -572 -572 l-95 -33 -1415 0 -1415 0 -95 33 c-282 98 -474 290 -572
572 l-33 95 -3 1382 c-3 1513 -5 1437 57 1598 102 266 352 478 636 540 48 11
325 13 1410 12 1340 -2 1350 -2 1420 -23z"/>
<path d="M2510 6030 l0 -700 -385 0 c-212 0 -385 -1 -385 -3 0 -13 1052 -1822
1060 -1822 8 0 1060 1809 1060 1822 0 2 -173 3 -385 3 l-385 0 0 700 0 700
-290 0 -290 0 0 -700z"/>
<path d="M7210 5785 l0 -385 -700 0 -700 0 0 -290 0 -290 700 0 700 0 0 -386
c0 -215 4 -384 9 -382 28 11 1821 1051 1821 1057 0 6 -1685 984 -1797 1044
l-33 17 0 -385z"/>
</g>
</svg>
